<svg id="visual" viewBox="0 0 960 540" width="960" height="540" xmlns="http://www.w3.org/2000/svg" xmlns:xlink="http://www.w3.org/1999/xlink" version="1.1"><rect x="0" y="0" width="960" height="540" fill="#98c5db"></rect><path d="M0 421L22.8 415.2C45.7 409.3 91.3 397.7 137 406C182.7 414.3 228.3 442.7 274 438.2C319.7 433.7 365.3 396.3 411.2 394.5C457 392.7 503 426.3 548.8 431.7C594.7 437 640.3 414 686 399.8C731.7 385.7 777.3 380.3 823 383C868.7 385.7 914.3 396.3 937.2 401.7L960 407L960 541L937.2 541C914.3 541 868.7 541 823 541C777.3 541 731.7 541 686 541C640.3 541 594.7 541 548.8 541C503 541 457 541 411.2 541C365.3 541 319.7 541 274 541C228.3 541 182.7 541 137 541C91.3 541 45.7 541 22.8 541L0 541Z" fill="#ffffff" stroke-linecap="round" stroke-linejoin="miter"></path></svg>